<svg width="30" height="30" viewBox="0 0 30 30" fill="none" xmlns="http://www.w3.org/2000/svg">
<path fill-rule="evenodd" clip-rule="evenodd" d="M11.2461 1.25C13.2336 1.25 14.9961 2.35125 14.9961 4.375C15.1311 5.76125 13.7048 8.53 13.7461 10.0025C13.7461 10.4062 13.7936 10.8337 13.8873 11.2862C14.1011 11.2525 14.3336 11.2437 14.5523 11.255C15.8998 7.14 17.9123 5 20.6211 5C23.9698 5 27.4961 8.29125 27.4961 11.25C27.4961 13.2375 26.3948 15 24.3711 15C22.8786 15.1137 20.2411 13.7087 18.7436 13.75C18.3398 13.75 17.9123 13.7975 17.4598 13.8912C17.4936 14.105 17.5011 14.3375 17.4911 14.5575C21.6048 15.9037 23.7461 17.9162 23.7461 20.625C23.7461 23.9737 20.4548 27.5 17.4961 27.5C15.5086 27.5 13.7461 26.3987 13.7461 24.375C13.6486 22.8037 15.0373 20.2662 14.9961 18.7475C14.9961 18.3437 14.9486 17.9162 14.8548 17.4637C14.6411 17.4975 14.4073 17.5062 14.1886 17.495C12.8423 21.61 10.8298 23.75 8.12109 23.75C4.77234 23.75 1.24609 20.4587 1.24609 17.5C1.24609 15.5125 2.34734 13.75 4.37109 13.75C5.94234 13.6525 8.47984 15.0412 9.99859 15C10.4023 15 10.8298 14.9525 11.2823 14.8587C11.2486 14.645 11.2398 14.4125 11.2511 14.1925C7.13734 12.8462 4.99609 10.8337 4.99609 8.125C4.99609 4.77625 8.28734 1.25 11.2461 1.25ZM17.1686 15.7662C16.9148 16.28 16.5186 16.715 16.0361 17.02C16.1761 17.6225 16.2461 18.1975 16.2461 18.7475C16.3811 20.135 14.9548 22.9025 14.9961 24.375C14.9961 25.5537 16.1111 26.25 17.4961 26.25C19.7448 26.25 22.4961 23.3025 22.4961 20.625C22.4961 18.5875 20.7748 16.9575 17.1686 15.7662ZM4.37109 15C3.19234 15 2.49609 16.115 2.49609 17.5C2.49609 19.7487 5.44359 22.5 8.12109 22.5C10.1586 22.5 11.7886 20.7787 12.9798 17.1725C12.4636 16.9175 12.0298 16.5225 11.7248 16.0387C11.1236 16.18 10.5486 16.25 9.99859 16.25C8.61109 16.385 5.84359 14.9587 4.37109 15ZM14.3711 12.5C13.3361 12.5 12.4961 13.34 12.4961 14.375C12.4961 15.41 13.3361 16.25 14.3711 16.25C15.4061 16.25 16.2461 15.41 16.2461 14.375C16.2461 13.34 15.4061 12.5 14.3711 12.5ZM20.6211 6.25C18.5836 6.25 16.9536 7.97125 15.7623 11.575C16.2773 11.8325 16.7123 12.2275 17.0173 12.7112C17.6173 12.57 18.1936 12.5 18.7436 12.5C20.1311 12.365 22.8986 13.7912 24.3711 13.75C25.5486 13.75 26.2461 12.635 26.2461 11.25C26.2461 9.00125 23.2986 6.25 20.6211 6.25ZM11.2461 2.5C8.99734 2.5 6.24609 5.4475 6.24609 8.125C6.24609 10.1625 7.96734 11.7925 11.5723 12.9837C11.8286 12.4675 12.2236 12.0337 12.7073 11.7287C12.5661 11.1275 12.4961 10.5525 12.4961 10.0025C12.3611 8.615 13.7873 5.8475 13.7461 4.375C13.7461 3.19625 12.6311 2.5 11.2461 2.5Z" fill="#CECECE"/>
</svg>
