<svg width="30" height="30" viewBox="0 0 30 30" fill="none" xmlns="http://www.w3.org/2000/svg">
<mask id="mask0_271_473" style="mask-type:luminance" maskUnits="userSpaceOnUse" x="0" y="1" width="29" height="29">
<path d="M28.628 1.07422H0.0566406V29.6456H28.628V1.07422Z" fill="white"/>
</mask>
<g mask="url(#mask0_271_473)">
<path d="M20.0576 8.69327H17.2004V3.45518H18.1529C18.4159 3.45518 18.629 3.24195 18.629 2.97898V1.55041C18.629 1.28744 18.4159 1.07422 18.1529 1.07422H10.5338C10.2708 1.07422 10.0576 1.28744 10.0576 1.55041V2.97898C10.0576 3.24195 10.2708 3.45518 10.5338 3.45518H11.4862V8.69327H8.62901C7.31459 8.6949 6.24968 9.75981 6.24805 11.0742V25.836C6.24968 27.1504 7.31459 28.2154 8.62901 28.217V29.1694C8.62901 29.4324 8.84222 29.6456 9.10519 29.6456H11.01C11.273 29.6456 11.4862 29.4324 11.4862 29.1694V28.217H17.2004V29.1694C17.2004 29.4324 17.4137 29.6456 17.6767 29.6456H19.5814C19.8444 29.6456 20.0576 29.4324 20.0576 29.1694V28.217C21.372 28.2154 22.437 27.1504 22.4386 25.836V11.0742C22.437 9.75981 21.372 8.6949 20.0576 8.69327ZM11.01 2.02661H17.6767V2.5028H11.01V2.02661ZM12.4386 3.45518H16.2481V8.69327H12.4386V3.45518ZM10.5338 28.6932H9.58138V28.217H10.5338V28.6932ZM19.1053 28.6932H18.1529V28.217H19.1053V28.6932ZM21.4861 25.836C21.4861 26.625 20.8466 27.2646 20.0576 27.2646H8.62901C7.84008 27.2646 7.20044 26.625 7.20044 25.836V11.0742C7.20044 10.2852 7.84008 9.64565 8.62901 9.64565H20.0576C20.8466 9.64565 21.4861 10.2852 21.4861 11.0742V25.836Z" fill="#CECECE"/>
<path d="M14.3434 10.5977C14.0804 10.5977 13.8672 10.8109 13.8672 11.0739V25.8358C13.8672 26.0988 14.0804 26.312 14.3434 26.312C14.6064 26.312 14.8196 26.0988 14.8196 25.8358V11.0739C14.8196 10.8109 14.6064 10.5977 14.3434 10.5977Z" fill="#CECECE"/>
<path d="M18.1538 11.5508C17.8908 11.5508 17.6777 11.7641 17.6777 12.027V24.8842C17.6777 25.1472 17.8908 25.3603 18.1538 25.3603C18.4168 25.3603 18.63 25.1472 18.63 24.8842V12.027C18.63 11.7641 18.4168 11.5508 18.1538 11.5508Z" fill="#CECECE"/>
<path d="M10.5328 11.5508C10.2698 11.5508 10.0566 11.7641 10.0566 12.027V24.8842C10.0566 25.1472 10.2698 25.3603 10.5328 25.3603C10.7958 25.3603 11.009 25.1472 11.009 24.8842V12.027C11.009 11.7641 10.7958 11.5508 10.5328 11.5508Z" fill="#CECECE"/>
</g>
</svg>
