<svg width="30" height="30" viewBox="0 0 30 30" fill="none" xmlns="http://www.w3.org/2000/svg">
<mask id="mask0_271_454" style="mask-type:luminance" maskUnits="userSpaceOnUse" x="0" y="0" width="29" height="29">
<path d="M28.8437 0.322266H0.34375V28.8222H28.8437V0.322266Z" fill="white"/>
</mask>
<g mask="url(#mask0_271_454)">
<path fill-rule="evenodd" clip-rule="evenodd" d="M7.86685 8.95179C7.68248 8.95179 7.53019 8.8035 7.53019 8.61914V5.5491C7.08931 5.93787 6.65647 6.11421 6.63242 6.12624C6.46007 6.19437 6.2677 6.11021 6.19556 5.94188C6.12742 5.76954 6.2116 5.57315 6.37993 5.50502C6.39194 5.50101 7.15745 5.18039 7.57828 4.475C7.75061 4.18643 8.1995 4.30667 8.1995 4.64333V8.61914C8.1995 8.8035 8.0512 8.95179 7.86685 8.95179Z" fill="#CECECE"/>
<path fill-rule="evenodd" clip-rule="evenodd" d="M14.3391 8.8138C13.5936 8.8138 12.9844 8.20461 12.9844 7.45914C12.9844 7.27477 13.1367 7.12648 13.3211 7.12648C13.5054 7.12648 13.6537 7.27477 13.6537 7.45914C13.6537 7.83588 13.9623 8.14449 14.3391 8.14449C14.7158 8.14449 15.0243 7.83588 15.0243 7.45914C15.0243 7.0824 14.7158 6.77379 14.3391 6.77379C14.1547 6.77379 14.0064 6.6255 14.0064 6.44113C14.0064 6.25677 14.1547 6.10848 14.3391 6.10848C14.6116 6.10848 14.836 5.88405 14.836 5.61151C14.836 5.33896 14.6116 5.11453 14.3391 5.11453C14.0665 5.11453 13.8421 5.33896 13.8421 5.61151C13.8421 5.79586 13.6938 5.94415 13.5094 5.94415C13.3251 5.94415 13.1768 5.79586 13.1768 5.61151C13.1768 4.97025 13.6978 4.44922 14.3391 4.44922C15.353 4.44922 15.882 5.66761 15.1887 6.40506C15.4973 6.65355 15.6938 7.03431 15.6938 7.45914C15.6938 8.20461 15.0845 8.8138 14.3391 8.8138Z" fill="#CECECE"/>
<path fill-rule="evenodd" clip-rule="evenodd" d="M20.8527 8.81494C20.1073 8.81494 19.498 8.20573 19.498 7.46028C19.498 7.27591 19.6464 7.12762 19.8307 7.12762C20.0151 7.12762 20.1673 7.27591 20.1673 7.46028C20.1673 7.83702 20.472 8.14563 20.8527 8.14563C21.2295 8.14563 21.538 7.83702 21.538 7.46028C21.538 7.08354 21.2295 6.77493 20.8488 6.77493L19.8988 6.77092C19.7145 6.77092 19.5622 6.62263 19.5622 6.43827V5.10765C19.5622 4.76298 19.8468 4.48242 20.1915 4.48242H21.8508C22.0351 4.48242 22.1874 4.63071 22.1874 4.81507C22.1874 4.99944 22.0351 5.14773 21.8508 5.14773H20.2315V6.10561H20.8527C21.5982 6.10962 22.2034 6.71481 22.2034 7.46028C22.2034 8.20573 21.5982 8.81494 20.8527 8.81494Z" fill="#CECECE"/>
<path fill-rule="evenodd" clip-rule="evenodd" d="M9.30955 24.6214H6.56817C6.27159 24.6214 6.1233 24.2607 6.33171 24.0522C6.45595 23.928 6.67637 23.7235 6.96094 23.4591C7.48597 22.9741 8.20738 22.3089 8.5681 21.904C8.71639 21.7437 8.74845 21.5874 8.67231 21.411C8.54404 21.1264 8.15928 20.89 7.83063 20.89C7.32965 20.89 6.92487 21.2949 6.92487 21.7918C6.92487 21.9762 6.77657 22.1244 6.5922 22.1244C6.40784 22.1244 6.25956 21.9762 6.25956 21.7918C6.25956 20.926 6.96094 20.2207 7.82664 20.2207C8.88472 20.2207 9.91473 21.411 9.06505 22.3528C8.6803 22.7778 7.95087 23.455 7.41381 23.952C7.41381 23.952 7.41382 23.952 7.40982 23.952H9.30955C9.49392 23.952 9.6462 24.1044 9.6462 24.2887C9.6462 24.469 9.49392 24.6214 9.30955 24.6214Z" fill="#CECECE"/>
<path fill-rule="evenodd" clip-rule="evenodd" d="M14.9596 24.7094C14.7753 24.7094 14.627 24.5571 14.627 24.3728V23.483H13.0358C12.7633 23.483 12.607 23.1744 12.7633 22.9539L14.6911 20.2727C14.8795 20.0081 15.2962 20.1444 15.2962 20.469V22.8137H15.8493C16.0338 22.8137 16.182 22.9619 16.182 23.1464C16.182 23.3307 16.0338 23.483 15.8493 23.483H15.2962V24.3728C15.2962 24.5571 15.144 24.7094 14.9596 24.7094ZM13.6851 22.8137H14.627V21.5031L13.6851 22.8137Z" fill="#CECECE"/>
<path fill-rule="evenodd" clip-rule="evenodd" d="M19.9461 24.8338C19.7618 24.8338 19.6094 24.6854 19.6094 24.5011V20.6294C19.6094 20.4451 19.7618 20.2969 19.9461 20.2969C20.1305 20.2969 20.2788 20.4451 20.2788 20.6294V24.5011C20.2788 24.6854 20.1305 24.8338 19.9461 24.8338Z" fill="#CECECE"/>
<path fill-rule="evenodd" clip-rule="evenodd" d="M21.5853 23.0383H19.9461C19.7618 23.0383 19.6094 22.8899 19.6094 22.7056V20.6294C19.6094 20.4451 19.7618 20.2969 19.9461 20.2969H21.5853C22.3428 20.2969 22.9601 20.9101 22.9601 21.6676C22.9601 22.4251 22.3428 23.0383 21.5853 23.0383ZM20.2788 22.3729H21.5853C21.9741 22.3729 22.2908 22.0562 22.2908 21.6676C22.2908 21.2788 21.9741 20.9621 21.5853 20.9621H20.2788V22.3729Z" fill="#CECECE"/>
<path fill-rule="evenodd" clip-rule="evenodd" d="M22.6793 24.7581C22.5712 24.7581 22.4629 24.702 22.3988 24.6018L21.3046 22.8866C21.2044 22.7303 21.2525 22.5258 21.4048 22.4256C21.5611 22.3254 21.7696 22.3736 21.8657 22.5258L22.9598 24.2451C23.1041 24.4697 22.9399 24.7581 22.6793 24.7581Z" fill="#CECECE"/>
<path fill-rule="evenodd" clip-rule="evenodd" d="M7.73499 19.4156C7.55063 19.4156 7.40234 19.2672 7.40234 19.0829V10.0612C7.40234 9.87681 7.55063 9.72852 7.73499 9.72852C7.91936 9.72852 8.06765 9.87681 8.06765 10.0612V19.0829C8.06765 19.2672 7.91936 19.4156 7.73499 19.4156Z" fill="#CECECE"/>
<path fill-rule="evenodd" clip-rule="evenodd" d="M14.4147 19.4156C14.2303 19.4156 14.082 19.2672 14.082 19.0829V10.0612C14.082 9.87681 14.2303 9.72852 14.4147 9.72852C14.599 9.72852 14.7473 9.87681 14.7473 10.0612V19.0829C14.7473 19.2672 14.599 19.4156 14.4147 19.4156Z" fill="#CECECE"/>
<path fill-rule="evenodd" clip-rule="evenodd" d="M21.0965 19.4156C20.9122 19.4156 20.7598 19.2672 20.7598 19.0829V15.9969C20.7598 15.8124 20.9122 15.6642 21.0965 15.6642C21.2809 15.6642 21.4291 15.8124 21.4291 15.9969V19.0829C21.4291 19.2672 21.2809 19.4156 21.0965 19.4156ZM21.0965 13.4799C20.9122 13.4799 20.7598 13.3316 20.7598 13.1473V10.0612C20.7598 9.87681 20.9122 9.72852 21.0965 9.72852C21.2809 9.72852 21.4291 9.87681 21.4291 10.0612V13.1473C21.4291 13.3316 21.2809 13.4799 21.0965 13.4799Z" fill="#CECECE"/>
<path fill-rule="evenodd" clip-rule="evenodd" d="M21.0973 14.9056H7.73499C7.55063 14.9056 7.40234 14.7574 7.40234 14.573C7.40234 14.3886 7.55063 14.2363 7.73499 14.2363H21.0973C21.2816 14.2363 21.43 14.3886 21.43 14.573C21.43 14.7574 21.2816 14.9056 21.0973 14.9056Z" fill="#CECECE"/>
<path fill-rule="evenodd" clip-rule="evenodd" d="M23.6896 28.0404H5.50189C2.6563 28.0404 0.34375 25.7279 0.34375 22.8863V6.25765C0.34375 3.41606 2.6563 1.10352 5.50189 1.10352H23.6896C26.5312 1.10352 28.8437 3.41606 28.8437 6.25765V22.8863C28.8437 25.7279 26.5312 28.0404 23.6896 28.0404ZM5.50189 1.76882C3.02501 1.76882 1.01306 3.78478 1.01306 6.25765V22.8863C1.01306 25.3592 3.02501 27.3752 5.50189 27.3752H23.6896C26.1625 27.3752 28.1745 25.3592 28.1745 22.8863V6.25765C28.1745 3.78478 26.1625 1.76882 23.6896 1.76882H5.50189Z" fill="#CECECE"/>
<path fill-rule="evenodd" clip-rule="evenodd" d="M23.69 26.5982H5.50231C3.45428 26.5982 1.79102 24.9349 1.79102 22.8869V6.25816C1.79102 4.21014 3.45428 2.54688 5.50231 2.54688H23.69C25.734 2.54688 27.4013 4.21014 27.4013 6.25816V22.8869C27.4013 24.9349 25.734 26.5982 23.69 26.5982ZM5.50231 3.21618C3.82301 3.21618 2.45633 4.57887 2.45633 6.25816V22.8869C2.45633 24.5662 3.82301 25.9288 5.50231 25.9288H23.69C25.3653 25.9288 26.732 24.5662 26.732 22.8869V6.25816C26.732 4.57887 25.3653 3.21618 23.69 3.21618H5.50231Z" fill="#CECECE"/>
</g>
</svg>
