<svg width="30" height="30" viewBox="0 0 30 30" fill="none" xmlns="http://www.w3.org/2000/svg">
<path d="M24.7819 9.6284C25.3116 9.1034 25.7804 8.76122 25.7804 7.96903C25.7837 7.64166 25.6887 7.32083 25.5077 7.04803C25.3267 6.77523 25.068 6.56301 24.7651 6.43882C24.4622 6.31463 24.129 6.28417 23.8086 6.3514C23.4882 6.41862 23.1953 6.58043 22.9679 6.8159L22.4991 7.28465C20.738 5.90352 18.6288 5.03713 16.4054 4.78153V4.21903C16.8405 4.18795 17.2455 3.98529 17.5312 3.65564C17.8169 3.32598 17.9599 2.89634 17.9288 2.46122C17.8977 2.0261 17.6951 1.62114 17.3654 1.33544C17.0358 1.04974 16.6061 0.906697 16.171 0.937777H13.8273C13.3921 0.906697 12.9625 1.04974 12.6328 1.33544C12.3032 1.62114 12.1005 2.0261 12.0694 2.46122C12.0384 2.89634 12.1814 3.32598 12.4671 3.65564C12.7528 3.98529 13.1578 4.18795 13.5929 4.21903V4.78153C11.3685 5.03986 9.25925 5.90953 7.49919 7.29403L7.03044 6.82528C6.72585 6.51448 6.31028 6.3374 5.87513 6.33301C5.43999 6.32861 5.02092 6.49726 4.71012 6.80184C4.39932 7.10643 4.22225 7.522 4.21785 7.95714C4.21346 8.39229 4.3821 8.81135 4.68669 9.12215L5.19762 9.6284C-0.732067 17.6159 4.98669 29.0628 14.9991 29.0628C25.0116 29.0628 30.721 17.5972 24.7819 9.6284ZM23.6523 7.50028C23.7476 7.40234 23.8698 7.33476 24.0034 7.30602C24.1371 7.27728 24.2762 7.28866 24.4034 7.33874C24.5306 7.38881 24.6402 7.47535 24.7184 7.58749C24.7966 7.69963 24.8399 7.83236 24.8429 7.96903C24.8428 8.05718 24.8244 8.14434 24.7889 8.22503C24.7534 8.30571 24.7016 8.37815 24.6366 8.43778C24.1679 8.90653 24.2288 8.90653 24.1679 8.8409C23.8732 8.50224 23.5602 8.17988 23.2304 7.87528L23.6523 7.50028ZM13.8273 1.87528H16.171C16.3575 1.87528 16.5363 1.94936 16.6682 2.08122C16.8001 2.21308 16.8741 2.39192 16.8741 2.5784C16.8741 2.76488 16.8001 2.94373 16.6682 3.07559C16.5363 3.20745 16.3575 3.28153 16.171 3.28153H13.8273C13.6408 3.28153 13.4619 3.20745 13.3301 3.07559C13.1982 2.94373 13.1241 2.76488 13.1241 2.5784C13.1241 2.39192 13.1982 2.21308 13.3301 2.08122C13.4619 1.94936 13.6408 1.87528 13.8273 1.87528ZM14.5304 4.68778V4.21903H15.4679V4.68778H14.5304ZM6.34606 7.50028C6.81481 7.96903 6.77731 7.9034 6.73044 7.94559C6.40082 8.24049 6.08784 8.55347 5.79294 8.88309L5.37106 8.43778C5.2844 8.30347 5.24712 8.14321 5.26562 7.98444C5.28412 7.82567 5.35724 7.67827 5.47246 7.56748C5.58768 7.45669 5.73783 7.38941 5.8972 7.37715C6.05657 7.36489 6.21525 7.40842 6.34606 7.50028ZM23.596 24.1456C22.54 25.3975 21.2233 26.4038 19.738 27.094C18.2527 27.7843 16.6346 28.1419 14.9968 28.1419C13.3589 28.1419 11.7409 27.7843 10.2556 27.094C8.77032 26.4038 7.45366 25.3975 6.39762 24.1456C0.21012 16.8097 5.48356 5.62528 14.9991 5.62528C24.5148 5.62528 29.7882 16.805 23.596 24.1269V24.1456Z" fill="#CECECE"/>
<path d="M22.7013 10.7482C21.7794 9.59006 20.6082 8.65474 19.2747 8.01188C17.9413 7.36901 16.4801 7.03516 14.9998 7.03516C13.5195 7.03516 12.0582 7.36901 10.7248 8.01188C9.39137 8.65474 8.22011 9.59006 7.29818 10.7482C2.17943 17.1607 6.75912 26.7185 14.9998 26.7185C23.2404 26.7185 27.8295 17.1654 22.7013 10.7482ZM21.806 22.617C20.97 23.6043 19.9288 24.3977 18.755 24.9419C17.5812 25.486 16.303 25.7679 15.0092 25.7679C13.7154 25.7679 12.4371 25.486 11.2633 24.9419C10.0895 24.3977 9.04831 23.6043 8.21224 22.617C3.28099 16.8232 7.46693 7.96853 14.9998 7.96853C22.5326 7.96853 26.7185 16.8185 21.806 22.617Z" fill="#CECECE"/>
<path d="M15 9.84375C15.1243 9.84375 15.2435 9.79436 15.3315 9.70646C15.4194 9.61855 15.4688 9.49932 15.4688 9.375C15.4688 9.25068 15.4194 9.13145 15.3315 9.04354C15.2435 8.95564 15.1243 8.90625 15 8.90625C14.8757 8.90625 14.7565 8.95564 14.6685 9.04354C14.5806 9.13145 14.5312 9.25068 14.5312 9.375C14.5312 9.49932 14.5806 9.61855 14.6685 9.70646C14.7565 9.79436 14.8757 9.84375 15 9.84375Z" fill="#CECECE"/>
<path d="M15 23.9062C14.8757 23.9062 14.7565 23.9557 14.6685 24.0436C14.5806 24.1316 14.5312 24.2507 14.5312 24.375C14.5312 24.4993 14.5806 24.6185 14.6685 24.7065C14.7565 24.7944 14.8757 24.8438 15 24.8438C15.1243 24.8438 15.2435 24.7944 15.3315 24.7065C15.4194 24.6185 15.4688 24.4993 15.4688 24.375C15.4688 24.2507 15.4194 24.1316 15.3315 24.0436C15.2435 23.9557 15.1243 23.9062 15 23.9062Z" fill="#CECECE"/>
<path d="M22.5 16.4062C22.3757 16.4062 22.2566 16.4557 22.1686 16.5436C22.0807 16.6316 22.0312 16.7507 22.0312 16.875C22.0312 16.9993 22.0807 17.1185 22.1686 17.2065C22.2566 17.2944 22.3757 17.3438 22.5 17.3438C22.6243 17.3438 22.7435 17.2944 22.8315 17.2065C22.9194 17.1185 22.9688 16.9993 22.9688 16.875C22.9688 16.7507 22.9194 16.6316 22.8315 16.5436C22.7435 16.4557 22.6243 16.4062 22.5 16.4062Z" fill="#CECECE"/>
<path d="M7.5 16.4062C7.37568 16.4062 7.25645 16.4557 7.16854 16.5436C7.08064 16.6316 7.03125 16.7507 7.03125 16.875C7.03125 16.9993 7.08064 17.1185 7.16854 17.2065C7.25645 17.2944 7.37568 17.3438 7.5 17.3438C7.62432 17.3438 7.74355 17.2944 7.83146 17.2065C7.91936 17.1185 7.96875 16.9993 7.96875 16.875C7.96875 16.7507 7.91936 16.6316 7.83146 16.5436C7.74355 16.4557 7.62432 16.4062 7.5 16.4062Z" fill="#CECECE"/>
<path d="M9.37443 11.2494C9.29764 11.3391 9.25751 11.4544 9.26207 11.5724C9.26663 11.6904 9.31553 11.8023 9.39901 11.8858C9.4825 11.9693 9.5944 12.0182 9.71238 12.0227C9.83035 12.0273 9.9457 11.9872 10.0354 11.9104C10.1122 11.8207 10.1523 11.7053 10.1477 11.5874C10.1432 11.4694 10.0943 11.3575 10.0108 11.274C9.92731 11.1905 9.8154 11.1416 9.69743 11.1371C9.57945 11.1325 9.46411 11.1726 9.37443 11.2494Z" fill="#CECECE"/>
<path d="M19.9725 21.8475C19.9108 21.9377 19.8825 22.0467 19.8926 22.1556C19.9027 22.2645 19.9506 22.3664 20.0279 22.4437C20.1052 22.521 20.2071 22.5688 20.316 22.579C20.4248 22.5891 20.5338 22.5608 20.6241 22.4991C20.6858 22.4088 20.7141 22.2999 20.7039 22.191C20.6938 22.0821 20.646 21.9802 20.5687 21.9029C20.4913 21.8256 20.3894 21.7777 20.2806 21.7676C20.1717 21.7575 20.0627 21.7858 19.9725 21.8475Z" fill="#CECECE"/>
<path d="M19.9725 11.2499C19.9108 11.3401 19.8825 11.4491 19.8926 11.5579C19.9027 11.6668 19.9506 11.7687 20.0279 11.846C20.1052 11.9233 20.2071 11.9712 20.316 11.9813C20.4248 11.9914 20.5338 11.9632 20.6241 11.9014C20.6858 11.8112 20.7141 11.7022 20.7039 11.5933C20.6938 11.4845 20.646 11.3826 20.5687 11.3053C20.4913 11.228 20.3894 11.1801 20.2806 11.17C20.1717 11.1599 20.0627 11.1881 19.9725 11.2499Z" fill="#CECECE"/>
<path d="M9.37487 21.8475C9.31312 21.9377 9.28487 22.0467 9.29498 22.1556C9.3051 22.2645 9.35295 22.3664 9.43026 22.4437C9.50758 22.521 9.60948 22.5688 9.71835 22.579C9.82722 22.5891 9.9362 22.5608 10.0264 22.4991C10.0882 22.4088 10.1165 22.2999 10.1063 22.191C10.0962 22.0821 10.0484 21.9802 9.97103 21.9029C9.89372 21.8256 9.79181 21.7777 9.68295 21.7676C9.57408 21.7575 9.4651 21.7858 9.37487 21.8475Z" fill="#CECECE"/>
<path d="M15.4688 15.5531V11.7188C15.4688 11.5944 15.4194 11.4752 15.3315 11.3873C15.2436 11.2994 15.1243 11.25 15 11.25C14.8757 11.25 14.7565 11.2994 14.6685 11.3873C14.5806 11.4752 14.5313 11.5944 14.5313 11.7188V15.5531C14.2185 15.6637 13.9549 15.8813 13.7871 16.1674C13.6192 16.4535 13.5579 16.7898 13.614 17.1167C13.6701 17.4437 13.84 17.7403 14.0936 17.9541C14.3472 18.1679 14.6683 18.2852 15 18.2852C15.3317 18.2852 15.6528 18.1679 15.9064 17.9541C16.16 17.7403 16.3299 17.4437 16.386 17.1167C16.4421 16.7898 16.3808 16.4535 16.213 16.1674C16.0451 15.8813 15.7815 15.6637 15.4688 15.5531ZM15 17.3438C14.8757 17.3438 14.7565 17.2944 14.6685 17.2065C14.5806 17.1185 14.5313 16.9993 14.5313 16.875C14.5313 16.7507 14.5806 16.6315 14.6685 16.5435C14.7565 16.4556 14.8757 16.4062 15 16.4062C15.1243 16.4062 15.2436 16.4556 15.3315 16.5435C15.4194 16.6315 15.4688 16.7507 15.4688 16.875C15.4688 16.9993 15.4194 17.1185 15.3315 17.2065C15.2436 17.2944 15.1243 17.3438 15 17.3438Z" fill="#CECECE"/>
</svg>
