<svg xmlns="http://www.w3.org/2000/svg" width="62" height="62" viewBox="0 0 62 62" fill="none"><path fill-rule="evenodd" clip-rule="evenodd" d="M18.8875 14.875C10.0274 14.875 2.84473 22.0575 2.84473 30.9177C2.84473 36.0611 5.264 40.639 9.03082 43.5764C9.46634 43.9161 9.54407 44.5444 9.20445 44.9799C8.86482 45.4155 8.23645 45.4932 7.80093 45.1536C3.56903 41.8534 0.844727 36.7035 0.844727 30.9177C0.844727 20.9529 8.92281 12.875 18.8875 12.875C22.3095 12.875 25.5117 13.8286 28.2396 15.4851C28.7117 15.7718 28.862 16.3869 28.5753 16.8589C28.2887 17.331 27.6736 17.4813 27.2016 17.1946C24.7777 15.7228 21.9331 14.875 18.8875 14.875Z" fill="#000"></path><path fill-rule="evenodd" clip-rule="evenodd" d="M28.6108 44.9517C28.8986 45.423 28.7498 46.0385 28.2785 46.3263C25.9303 47.7601 23.2284 48.6727 20.3351 48.9027C19.7846 48.9464 19.3028 48.5356 19.2591 47.985C19.2153 47.4345 19.6261 46.9527 20.1767 46.9089C22.7488 46.7045 25.1491 45.8937 27.2362 44.6193C27.7075 44.3315 28.323 44.4803 28.6108 44.9517Z" fill="#000"></path><path fill-rule="evenodd" clip-rule="evenodd" d="M43.1082 14.875C34.2481 14.875 27.0654 22.0577 27.0654 30.9177C27.0654 39.7778 34.2481 46.9605 43.1082 46.9605C51.9682 46.9605 59.1509 39.7779 59.1509 30.9177C59.1509 26.764 57.5737 22.981 54.9836 20.1312C54.6121 19.7225 54.6423 19.09 55.0511 18.7186C55.4598 18.3471 56.0922 18.3773 56.4637 18.786C59.3752 21.9896 61.1509 26.2474 61.1509 30.9177C61.1509 40.8825 53.0728 48.9605 43.1082 48.9605C33.1435 48.9605 25.0654 40.8824 25.0654 30.9177C25.0654 20.9531 33.1435 12.875 43.1082 12.875C43.6605 12.875 44.1082 13.3227 44.1082 13.875C44.1082 14.4273 43.6605 14.875 43.1082 14.875Z" fill="#000"></path><path fill-rule="evenodd" clip-rule="evenodd" d="M43.1086 20.4141C43.4892 20.4141 43.8369 20.6302 44.0053 20.9715L46.8612 26.7579L53.2468 27.6859C53.6235 27.7406 53.9364 28.0044 54.054 28.3665C54.1717 28.7285 54.0736 29.1259 53.801 29.3916L49.1803 33.8955L50.2711 40.2554C50.3354 40.6306 50.1812 41.0097 49.8733 41.2335C49.5653 41.4572 49.1571 41.4867 48.8201 41.3096L43.1086 38.3068L37.3972 41.3096C37.0603 41.4867 36.6521 41.4572 36.3441 41.2335C36.0362 41.0098 35.8819 40.6306 35.9463 40.2554L37.0369 33.8955L32.4163 29.3916C32.1437 29.1259 32.0456 28.7285 32.1632 28.3665C32.2808 28.0044 32.5938 27.7406 32.9705 27.6859L39.3561 26.7579L42.2119 20.9715C42.3803 20.6302 42.7279 20.4141 43.1086 20.4141ZM43.1086 23.6736L40.9169 28.1144C40.7713 28.4096 40.4897 28.6141 40.164 28.6615L35.2632 29.3737L38.8094 32.8303C39.0451 33.06 39.1526 33.391 39.097 33.7154L38.26 38.5964L42.6432 36.2919C42.9346 36.1388 43.2826 36.1388 43.5739 36.2919L47.9574 38.5964L47.1202 33.7154C47.0645 33.391 47.1721 33.06 47.4078 32.8303L50.954 29.3737L46.0533 28.6615C45.7276 28.6141 45.446 28.4096 45.3004 28.1144L43.1086 23.6736Z" fill="#f0b001"></path><path d="M18.0836 29.2141C15.5611 28.1848 15.1334 27.624 15.1291 26.7563C15.1251 25.9504 15.7007 25.0864 17.3277 25.0784C18.9485 25.0705 19.9708 25.648 20.4074 25.8947C20.5737 25.9888 20.7732 26.0052 20.9525 25.9396C21.1321 25.8741 21.2741 25.7333 21.3409 25.5542L22.0068 23.77C22.1182 23.4713 21.9913 23.136 21.7157 22.9762C20.7716 22.429 19.6512 22.1073 18.5193 21.9984L18.5095 19.2863C18.5076 18.9255 18.2272 18.6583 17.8663 18.6602L16.1933 18.6684C15.8324 18.6702 15.5984 18.9398 15.6002 19.3006L15.611 22.1997C13.0279 22.8229 11.52 24.6963 11.5318 27.0976C11.5463 30.0574 13.8776 31.3714 16.4034 32.3475C18.7292 33.2771 19.0461 34.143 19.0501 34.94C19.0559 36.1308 18.0285 36.9359 16.4988 36.9434C15.2611 36.9494 13.9733 36.5728 12.9687 35.9101C12.8009 35.7993 12.5904 35.7722 12.3998 35.8361C12.2092 35.9002 12.0582 36.0485 11.9913 36.2381L11.3523 38.0492C11.2551 38.3248 11.3141 38.6317 11.5527 38.8004C12.4913 39.4639 13.9198 39.9331 15.3749 40.0561L15.3852 42.5222C15.3871 42.883 15.7581 43.1737 16.1189 43.1718L17.8189 43.1635C18.1797 43.1617 18.4577 42.868 18.4561 42.507L18.4449 39.8734C21.0278 39.2237 22.7018 37.2157 22.6896 34.7332C22.6816 33.0239 22.1559 30.8516 18.0836 29.2141Z" fill="#000"></path><path fill-rule="evenodd" clip-rule="evenodd" d="M7.98578 47.8808C8.41837 47.5375 9.04738 47.6098 9.39073 48.0424C9.54537 48.2372 9.70242 48.4299 9.86187 48.62C10.2168 49.0431 10.1615 49.6738 9.73836 50.0288C9.31522 50.3837 8.68448 50.3284 8.32955 49.9053C8.15818 49.7009 7.98973 49.4944 7.82419 49.2858C7.48085 48.8532 7.55319 48.2242 7.98578 47.8808Z" fill="#000"></path><path fill-rule="evenodd" clip-rule="evenodd" d="M54.9133 46.0137C55.4431 46.1698 55.746 46.7259 55.5899 47.2556L52.634 57.2854C52.5328 57.6287 52.2559 57.8917 51.9079 57.9752C51.5599 58.0586 51.1939 57.9497 50.948 57.6897L48.3051 54.8938C43.4397 58.412 37.4597 60.486 30.9978 60.486C23.3691 60.486 16.4132 57.5955 11.169 52.8519C10.7594 52.4814 10.7277 51.8491 11.0982 51.4395C11.4687 51.0299 12.1011 50.9982 12.5107 51.3687C17.4015 55.7927 23.884 58.486 30.9978 58.486C37.3278 58.486 43.1568 56.3538 47.8099 52.7678C48.2166 52.4545 48.7944 52.4999 49.1471 52.873L51.2071 55.0522L53.6714 46.6902C53.8276 46.1605 54.3836 45.8576 54.9133 46.0137Z" fill="#000"></path><path fill-rule="evenodd" clip-rule="evenodd" d="M53.3327 13.0768C53.7757 12.747 54.4022 12.8389 54.7319 13.2819C55.0012 13.6437 55.2625 14.012 55.5153 14.3864C55.8245 14.844 55.704 15.4656 55.2464 15.7748C54.7887 16.0839 54.1671 15.9635 53.858 15.5058C53.6222 15.1568 53.3787 14.8134 53.1276 14.476C52.7978 14.033 52.8896 13.4065 53.3327 13.0768Z" fill="#000"></path><path fill-rule="evenodd" clip-rule="evenodd" d="M30.9983 3.35156C24.5436 3.35156 18.6095 5.56869 13.9121 9.28361C13.4801 9.62523 12.8533 9.55328 12.5099 9.12268L10.4736 6.56882L8.13772 15.4095C7.99663 15.9434 7.4494 16.2619 6.91544 16.1208C6.38148 15.9797 6.06299 15.4325 6.20408 14.8985L9.04828 4.13423C9.14485 3.76875 9.43926 3.48896 9.80919 3.41112C10.1791 3.33328 10.5613 3.4707 10.797 3.76627L13.4632 7.11012C18.3691 3.49111 24.4351 1.35156 30.9983 1.35156C38.7828 1.35156 45.8666 4.36122 51.1459 9.27856C51.55 9.65498 51.5725 10.2877 51.196 10.6919C50.8196 11.096 50.1869 11.1185 49.7827 10.742C44.859 6.15586 38.2572 3.35156 30.9983 3.35156Z" fill="#000"></path><path fill-rule="evenodd" clip-rule="evenodd" d="M19.9907 46.5635C19.6336 46.1432 19.0035 46.0913 18.5824 46.4478C18.1609 46.8046 18.1085 47.4356 18.4653 47.8571L19.2285 47.211C18.4653 47.8571 18.4661 47.8581 18.4661 47.8581L18.4672 47.8593L18.4699 47.8625L18.4779 47.8717L18.5041 47.9019C18.5262 47.9271 18.5575 47.9622 18.5977 48.0064C18.6783 48.0948 18.795 48.2194 18.9473 48.3734C19.2516 48.681 19.6984 49.1064 20.2815 49.5922C21.4464 50.5627 23.1638 51.782 25.3835 52.7839C29.8483 54.7994 36.2985 55.9103 44.2447 52.4505C44.7511 52.23 44.9829 51.6408 44.7624 51.1345C44.5419 50.6281 43.9527 50.3963 43.4463 50.6168C36.0802 53.8241 30.2219 52.7737 26.2063 50.961C24.1857 50.0489 22.62 48.9374 21.5617 48.0557C21.0333 47.6154 20.6336 47.2342 20.3692 46.967C20.2371 46.8334 20.1391 46.7285 20.0758 46.6591C20.0442 46.6244 20.0213 46.5986 20.0073 46.5826L19.9928 46.566L19.9907 46.5635Z" fill="#000"></path><path fill-rule="evenodd" clip-rule="evenodd" d="M42.2676 13.2265L42.9629 12.5078L43.6816 13.2031L42.291 14.6405L41.5735 13.9464L41.5713 13.9443L41.5566 13.9304C41.5423 13.9171 41.5191 13.8955 41.4871 13.8666C41.423 13.8087 41.324 13.7214 41.1915 13.6106C40.9265 13.3888 40.5286 13.0741 40.0106 12.7149C38.9729 11.9952 37.4636 11.1041 35.5834 10.4206C31.8456 9.06185 26.6229 8.51122 20.6282 11.8208C20.1447 12.0877 19.5363 11.9122 19.2694 11.4287C19.0025 10.9452 19.178 10.3368 19.6615 10.0699C26.2503 6.43233 32.089 7.02228 36.2667 8.54092C38.3442 9.29612 40.0063 10.2779 41.1504 11.0714C41.7233 11.4688 42.169 11.8207 42.4748 12.0766C42.6278 12.2045 42.7459 12.3086 42.8278 12.3825C42.8687 12.4195 42.9005 12.4489 42.9231 12.4701L42.95 12.4955L42.9582 12.5033L42.961 12.506L42.9621 12.507C42.9625 12.5074 42.9629 12.5078 42.2676 13.2265Z" fill="#000"></path></svg>